<mxfile host="app.diagrams.net" modified="2024-06-16T08:34:28.974Z" agent="Mozilla/5.0 (Macintosh; Intel Mac OS X 10_15_7) AppleWebKit/537.36 (KHTML, like Gecko) Chrome/125.0.0.0 Safari/537.36" version="24.5.1" etag="9tufFINwhDBx821LHsBX" type="github">
  <diagram name="第 1 页" id="sjWXWl18P2W470_uy2_I">
    <mxGraphModel>
      <root>
        <mxCell id="0" />
        <mxCell id="1" parent="0" />
      </root>
    </mxGraphModel>
  </diagram>
</mxfile>
